<?xml version="1.0" encoding="iso-8859-1"?>
<!-- Uploaded to: SVG Repo, www.svgrepo.com, Generator: SVG Repo Mixer Tools -->
<svg fill="#000000" height="800px" width="800px" version="1.1" id="Layer_1" xmlns="http://www.w3.org/2000/svg" xmlns:xlink="http://www.w3.org/1999/xlink" 
	 viewBox="0 0 512 512" xml:space="preserve">
<g>
	<g>
		<path d="M508.086,62.417c-2.471-1.933-5.694-2.622-8.739-1.866L20.398,179.288v-8.775c0-5.633-4.566-10.199-10.199-10.199
			C4.566,160.313,0,164.879,0,170.512V315.47c0,5.633,4.566,10.199,10.199,10.199c5.633,0,10.199-4.566,10.199-10.199v-8.775
			l113.114,28.043v49.984c0,36.959,30.068,67.028,67.028,67.028h71.891c31.296,0,56.758-25.461,56.758-56.758v-11.744
			l170.156,42.184c0.811,0.201,1.635,0.3,2.454,0.3c2.255,0,4.472-0.748,6.286-2.166c2.47-1.934,3.914-4.896,3.914-8.033V70.45
			C512,67.313,510.556,64.351,508.086,62.417z M308.791,394.99c0,20.049-16.311,36.359-36.359,36.359h-71.891
			c-25.711,0-46.63-20.918-46.63-46.63v-44.927l154.88,38.397V394.99z M425.187,386.029L20.398,285.677v-85.373L425.187,99.951
			V386.029z M491.602,402.493l-46.016-11.408V94.895l46.016-11.408V402.493z"/>
	</g>
</g>
<g>
	<g>
		<path d="M245.232,175.275c-1.366-5.465-6.902-8.787-12.369-7.421l-10.955,2.74c-5.465,1.366-8.787,6.904-7.42,12.369
			c1.159,4.635,5.317,7.728,9.887,7.728c0.818,0,1.651-0.1,2.481-0.307l10.955-2.74C243.276,186.278,246.598,180.74,245.232,175.275
			z"/>
	</g>
</g>
<g>
	<g>
		<path d="M409.556,134.195c-1.367-5.465-6.903-8.787-12.369-7.421l-121.872,30.468c-5.465,1.367-8.788,6.904-7.421,12.369
			c1.159,4.635,5.317,7.728,9.887,7.728c0.818,0,1.651-0.1,2.481-0.307l121.872-30.468
			C407.6,145.197,410.923,139.66,409.556,134.195z"/>
	</g>
</g>
</svg>