<svg width="495" height="322" viewBox="0 0 495 322" fill="none" xmlns="http://www.w3.org/2000/svg">
<path d="M439.257 28.0119L375.649 24.1531L248.432 16.4354L35.5963 3.52348C15.1428 2.28265 -0.507609 21.4572 4.80575 41.2474L66.5767 271.321C70.5671 286.183 85.1566 295.616 100.348 293.156L252.265 268.547L303.308 261.47C314.652 259.897 325.902 264.92 332.303 274.416L360.672 316.497C362.938 319.859 368.053 319.268 369.492 315.477L387.212 268.805C391.238 258.199 400.904 250.771 412.19 249.611L443.146 246.428C456.499 245.055 467.315 234.98 469.629 221.758L484.291 137.989L491.5 99.5" stroke="black" stroke-width="6" stroke-linecap="round"/>
</svg>
