<svg width="495" height="316" viewBox="0 0 495 316" fill="none" xmlns="http://www.w3.org/2000/svg">
<path d="M1.95349 38.2474C-3.35987 18.4572 12.2905 -0.717351 32.744 0.523481L466.488 26.837C484.36 27.9212 497.309 44.3176 494.222 61.9542L466.777 218.758C464.462 231.98 453.647 242.055 440.294 243.428L409.338 246.611C398.052 247.771 388.386 255.199 384.359 265.805L366.64 312.477C365.201 316.268 360.086 316.859 357.82 313.497L329.451 271.416C323.049 261.92 311.8 256.897 300.456 258.47L249.413 265.547L97.4955 290.156C82.3043 292.616 67.7149 283.183 63.7244 268.321L1.95349 38.2474Z" fill="white"/>
</svg>
